<?xml version="1.0" encoding="UTF-8"?>
<svg width="1435px" height="1438px" viewBox="0 0 1435 1438" version="1.1" xmlns="http://www.w3.org/2000/svg" xmlns:xlink="http://www.w3.org/1999/xlink">
    <title>Artboard</title>
    <g id="Artboard" stroke="none" stroke-width="1" fill="none" fill-rule="evenodd">
        <circle id="Oval" stroke="#979797" fill="#FFFFFF" cx="715.5" cy="719.5" r="699"></circle>
        <g id="shutterstock_1936836490" transform="translate(176.000000, 100.000000)">
            <path d="M199,709 C197.985305,708.354609 196.889746,707.621669 195.659868,706.929982 C194.427249,706.243796 193.113309,705.532858 191.789317,704.748579 C190.430147,704.019764 189.023463,703.265739 187.590738,702.497962 C186.127403,701.788857 184.697876,700.969284 183.187027,700.301891 C175.372371,696.551932 166.864652,693.801687 158.192462,691.242125 C149.426614,688.656437 140.474823,686.512162 131.535368,684.098822 C122.600938,681.690982 113.683412,679.088792 104.886041,676.081857 C92.283451,671.801559 79.8901046,666.695729 68.0833713,660.367415 C56.3209539,653.977679 45.1958616,646.297619 35.3458764,637.165889 C29.765741,631.878084 24.6132302,626.116779 20.1578936,619.859054 C15.6545864,613.634333 11.83292,606.97003 8.49415883,600.121003 C4.56238829,592.032991 2.40507706,585.119333 0.563458763,579.124715 C-0.554944012,575.575982 0.0261868417,576.615575 1.99938193,581.177773 C4.5824903,587.012876 7.11580051,593.130797 10.0867863,598.902645 C12.3907508,603.458884 14.8961924,607.911989 17.7177837,612.149659 C20.5380044,616.387786 23.6624965,620.406811 27.0094812,624.227819 C33.7317763,631.845998 41.3294226,638.674856 49.541094,644.667182 C65.97997,656.693088 84.6689007,665.343067 103.914292,672.101794 C115.417667,676.147405 127.166836,679.502704 138.984077,682.657235 C150.79949,685.824143 162.773892,688.898458 174.286405,693.641714 C178.282137,695.302404 182.207054,697.183113 186.333449,699.535948 C188.395276,700.715345 190.494108,702.036838 192.647308,703.543514 C193.690328,704.344293 194.762131,705.167533 195.868655,706.016901 C196.395876,706.474358 196.949595,706.917148 197.461739,707.427318 C197.966117,707.942989 198.479175,708.467369 199,709" id="Fill-32" fill="#7EAD49"></path>
            <path d="M607.650462,0.682216442 C762.40284,-10.2839828 918.524708,111.714984 939.067059,311.84812 C959.60941,511.981256 869.223066,655.912621 762.40284,758.720738 C655.582615,861.528856 566.56576,898.539779 537.806469,952 C537.806469,952 510.416668,909.505978 384.423581,836.854908 C258.430495,764.203838 98.2001566,687.440443 46.159534,485.936533 C-5.88108866,284.432622 83.1357659,55.5132126 352.92531,151.467456 C352.92531,151.467456 452.898085,11.6484157 607.650462,0.682216442 Z" id="Fill-38" fill="#7BB276"></path>
            <path d="M522.776881,383.632653 C525.900958,386.832733 495.855947,383.30804 455.387435,392.882295 C414.918924,402.456551 363.818854,430.83738 331.581227,484.179661 C299.343599,537.521942 303.459041,636 303.459041,636 C303.459041,636 254.073739,625.057994 210.175693,607.277233 C166.277646,589.496473 148.444065,581.973843 170.393088,545.044572 C192.342111,508.1153 265.04825,435.624508 339.126203,396.64361 C413.204156,357.662712 503.399094,363.782485 522.776881,383.632653" id="Fill-63" fill="#F9D9BF"></path>
            <path d="M568,7 C565.398036,7.82903374 562.262207,8.46809013 558.856033,8.99773786 C557.1534,9.26279061 555.382499,9.50037676 553.577463,9.72102517 C551.768786,9.90413588 549.946911,10.2991972 548.112747,10.5624189 C538.479972,11.9861047 528.60416,13.8941183 518.712873,16.2347309 C498.734594,20.9338096 479.119508,27.8723322 460.78515,37.3469381 C434.461483,50.8092376 410.91819,69.650872 391.592564,92.0974985 C380.503837,104.936306 370.688101,118.91452 362.456209,133.735959 C357.620934,142.475375 353.777837,149.542075 350.561906,155.875875 C349.620247,157.750471 349.110504,158.370758 349.013107,157.790297 C348.925268,157.205716 349.272075,155.462502 350.261067,152.807397 C352.780198,145.984234 355.936507,139.106138 359.439624,132.575495 C370.479198,112.013077 384.605446,93.1764784 401.032365,76.6814078 C409.231487,68.4144169 418.10784,60.8299713 427.488474,53.9569107 C436.872293,47.0975835 446.680747,40.7784329 457.029892,35.48516 C469.323797,29.0675873 482.144285,23.6827591 495.326144,19.3874396 C508.558522,15.2633286 522.073535,12.0854422 535.763771,9.95403355 C540.528502,9.24676842 545.331007,8.78761832 550.547679,8.16137968 C555.777095,7.67064298 561.464368,7.44495903 568,7" id="Fill-64" fill="#1D4A41"></path>
            <path d="M698,15.5974241 C707.570933,15.0543154 720.865494,14.8357918 734.243158,15.1343188 C743.018682,15.3551281 751.970457,15.8154904 760.961043,17.1522327 C769.936561,18.486232 778.977831,20.7372987 787.51318,24.5331165 C789.640511,25.5461879 791.836332,26.4289681 793.849055,27.6765638 C795.892826,28.8601567 798.002349,29.9450026 799.897724,31.372263 C803.852395,33.9282569 807.59109,37.068504 810.722499,40.6764281 C817.076638,47.8808473 821.377417,56.3996077 826.02339,64.4310333 C828.343865,68.4600038 830.740137,72.414914 833.467906,76.0886694 C836.210286,79.7729396 839.32617,83.0101052 842.875831,85.9075992 C849.987937,91.7423604 858.026955,96.5055334 865.807076,101.83833 C871.370829,105.658835 876.864721,109.786095 881.631695,114.786078 C886.296389,119.813034 890.509499,125.080914 894.481521,130.593376 C902.387666,141.618299 908.980154,153.512746 914.702806,165.754635 C917.568013,171.878323 920.171585,178.11493 922.616714,184.405939 C925.048601,190.703348 927.378665,197.02773 929.324723,203.505261 L932.378052,213.167384 C933.346058,216.401807 934.079369,219.701146 934.940529,222.96437 C935.744613,226.24268 936.662849,229.494932 937.37059,232.793357 L939.346327,242.720178 L940.474146,248.405447 L941.339872,254.134603 L943.023837,265.597031 C943.769933,273.281471 944.766249,280.942595 945.108247,288.651721 C945.704575,296.343932 945.800919,304.053973 946,311.750756 L945.914615,323.296387 C945.894067,327.14295 945.660741,330.98357 945.54385,334.824189 C944.748898,352.924155 942.553533,367.37871 939.862293,379.774205 C939.028072,383.447504 938.468729,384.628354 938.367362,383.694829 C938.269648,382.771361 938.560963,379.688259 939.211171,374.729878 C940.784182,361.964538 941.760407,348.590715 942.310161,335.45233 C943.892303,294.10338 940.000644,252.337499 928.460366,212.585874 L923.778321,197.80262 C922.051891,192.921042 920.269755,188.060493 918.358399,183.25389 C914.543907,173.639769 910.307966,164.194798 905.460173,155.082641 C903.051573,150.517419 900.442522,146.066945 897.728452,141.685502 C894.939954,137.354348 892.099404,133.049708 888.960233,128.969993 C887.454801,126.880304 885.778141,124.92685 884.189149,122.903908 C882.497421,120.982455 880.874641,118.933911 879.113509,117.142749 C875.63097,113.466251 871.660774,110.234571 867.50748,107.219587 C862.556037,103.608463 857.321954,100.307294 852.150883,96.8346902 C846.987574,93.330999 841.833854,89.7628481 837.195186,85.3315748 C832.535972,80.8971015 828.872616,75.6255641 825.653082,70.2539083 C822.412088,64.8785951 819.539118,59.3702477 816.394011,54.1019105 C813.238859,48.8559742 809.748557,43.8505053 805.460107,39.6789002 C804.94962,39.1293912 804.388451,38.6402277 803.812213,38.1684363 L802.11044,36.7233466 C800.920979,35.8081078 799.644307,34.9705867 798.416948,34.0896351 L796.559472,32.7826084 C795.939857,32.3469328 795.256317,32.0109186 794.608392,31.6195878 L790.672442,29.3474916 C779.87004,23.8034856 767.933427,20.6262083 755.779013,19.0832859 C747.320831,17.9444948 738.753519,17.4077864 729.37573,17.023313 C719.996572,16.6200959 709.791868,16.4600891 698,15.5974241" id="Fill-65" fill="#1D4A41"></path>
            <path d="M934.484254,403 C934.96751,397.816732 935.898327,391.660057 937.068027,385.014619 C937.367774,383.354747 937.673012,381.662382 937.982827,379.945762 C938.261523,378.222735 938.544337,376.474996 938.830355,374.710781 C939.428934,371.188758 940.039411,367.600377 940.64943,364.010166 C943.710509,345.132381 946.459028,325.535638 948.041509,305.57873 C949.722379,285.443341 950.342009,265.130844 949.182377,244.882875 C949.026326,242.35348 948.917868,239.81951 948.724748,237.292403 L947.962339,229.727102 C947.555964,224.669687 946.716673,219.669934 945.997738,214.653706 C945.681059,212.137583 945.160735,209.658529 944.673818,207.173526 L943.202541,199.721263 L941.37889,192.352291 C941.066788,191.126722 940.790837,189.890628 940.449446,188.673297 L939.350222,185.043728 C935.248494,171.158831 929.632016,157.71739 922.315446,145.253476 C914.900486,132.861869 905.797791,121.467009 895.107123,111.740716 C889.778951,106.862239 884.113048,102.351249 878.194992,98.1693047 C872.282885,93.9695124 866.113133,90.1413264 859.915008,86.2074247 C853.739765,82.1527053 847.658335,77.7753474 842.371807,72.4575325 C837.029448,67.1900584 832.732771,60.9510076 828.82462,54.7883832 C824.402553,47.6756914 819.602026,41.0970693 813.436393,35.6977939 C807.347184,30.2756363 800.171106,25.9536532 792.929587,22.1735198 C785.559475,18.6125974 777.627394,16.1729011 769.543381,14.5176054 C761.45891,12.8266135 753.200997,11.9223103 744.933017,11.4614636 C735.182777,10.9287668 726.349625,10.9878028 718.244103,11.2024375 C710.137208,11.4495648 702.751537,11.8870718 695.866511,12.4975679 C691.794072,12.8710049 690.335151,12.8600214 691.274205,12.4046664 C692.212802,11.9653288 695.532442,11.1479779 700.990581,10.4001888 C715.002718,8.50234213 729.763536,7.54861354 744.259845,8.20853514 C755.658006,8.73528256 767.084083,10.1182805 778.198515,13.1108099 C783.746807,14.6150834 789.211353,16.5385581 794.431067,19.0578843 C795.713343,19.7269588 797.041382,20.3383702 798.284302,21.0582431 L802.002536,23.231591 C804.521326,24.6072667 806.861639,26.3078691 809.253665,27.914197 C813.902259,31.3149442 818.426835,35.0273465 822.188087,39.478385 C826.021186,43.8534547 829.17791,48.720491 832.221141,53.4694553 C835.263458,58.2280301 838.40691,62.7994288 842.083043,66.9369816 C845.732633,71.0987896 849.989496,74.6857976 854.383648,78.0883754 C856.647081,79.713009 858.957649,81.2708267 861.270047,82.8437467 L868.435599,87.3853985 C873.230634,90.4264381 877.975788,93.5960755 882.593263,96.9528889 C887.233619,100.282701 891.640127,103.939271 895.953279,107.694692 C900.162092,111.567727 904.29448,115.542359 908.057104,119.860223 C915.674794,128.408084 922.287073,137.842858 927.779992,147.873026 C933.284809,157.902278 937.680792,168.499924 941.20728,179.352476 C942.165097,182.619592 943.219931,185.861537 944.097206,189.149704 L946.529503,199.065918 L948.476714,209.081441 C948.829545,210.746805 949.078953,212.427729 949.307768,214.111856 L950.034482,219.158289 L950.752502,224.206094 L951.247656,229.277697 C951.542827,232.660596 951.986269,236.035257 952.159253,239.425936 L952.707492,249.597973 L952.842035,252.14064 L952.938137,259.776418 C953.225986,273.355151 952.466779,286.913749 951.541454,300.443057 C950.898028,307.191465 950.265585,313.944449 949.518277,320.681416 C948.600731,327.395958 947.809491,334.131551 946.783487,340.829618 C945.243566,350.132591 943.814849,359.463937 941.711587,369.532089 C939.852698,379.650582 937.280367,390.482541 934.484254,403" id="Fill-66" fill="#1D4A41"></path>
            <path d="M39.0182077,456 C35.2317115,445.981895 32.0225061,431.071738 29.6661893,416.070911 C26.5544961,396.350214 24.4705727,375.723276 24.0727411,354.742359 C23.6955107,333.566822 24.7544111,312.229637 27.9787241,291.114547 C29.5796644,280.559292 31.7134884,270.063109 34.5244044,259.730407 C37.2973227,249.389462 40.747333,239.211998 44.9632493,229.345009 C50.9934424,215.223864 58.5270636,201.660017 67.8946473,189.406304 C72.5619582,183.273724 77.6495331,177.45574 83.1244101,172.023333 C88.6015761,166.607869 94.4372025,161.485479 100.697671,157.026169 C112.969105,147.763647 126.262815,139.79981 140.348068,133.570606 C154.42508,127.328581 169.268457,122.832637 184.412152,120.144596 C188.766325,119.486095 193.095777,118.639842 197.487948,118.281284 L204.056061,117.605382 L210.647521,117.244992 L213.942336,117.066858 L217.241271,117.041672 L223.83731,117 L230.425108,117.247281 L233.718092,117.375959 L237.001919,117.639726 C254.526653,118.933833 271.837592,122.251984 288.621599,127.14312 C298.513368,130.029444 307.228124,133.297223 315.028187,136.702838 C322.821841,140.125397 329.728728,143.6487 335.923273,147.319914 C339.602185,149.506065 340.642774,150.546479 339.638352,150.264395 C338.624774,150.000628 335.474625,148.480763 330.342186,146.067937 C317.136832,139.908797 302.869831,134.583086 288.55476,130.480046 C266.042253,123.950899 242.631992,120.334178 219.20937,120.548031 C207.507902,120.668924 195.804603,121.659424 184.294497,123.781465 C172.794005,125.943347 161.503645,129.133735 150.552059,133.245935 C139.60139,137.391563 129.168954,142.772682 119.097726,148.726213 C114.206091,151.939956 109.178946,154.956332 104.561078,158.572137 C99.8186875,162.016218 95.1742668,165.571118 90.8860176,169.540902 C82.1584438,177.312867 74.4462791,186.182945 67.6021106,195.656114 C60.8458404,205.200721 54.9964798,215.392839 50.15383,226.058913 C47.2522688,232.418169 44.6633877,238.923045 42.3752838,245.535535 C40.1164792,252.159473 38.1456334,258.882323 36.4343624,265.672947 C32.9880145,279.252363 30.7095244,293.120274 29.1763391,307.057791 C26.2152634,334.963505 26.4862833,363.178779 28.9790256,391.149061 C29.863045,400.881876 30.9663524,410.604617 32.5132719,421.154835 C34.0839971,431.683531 35.9847989,443.132205 39.0182077,456" id="Fill-67" fill="#1D4A41"></path>
            <path d="M530,944 C523.931919,937.39031 515.532075,928.29821 505.789979,920.649606 C493.113709,910.484267 478.532632,902.08737 463.526431,894.118853 C433.070584,878.170379 401.791976,863.173861 370.573381,848.120591 C348.210446,837.345176 325.801242,826.590814 303.545504,815.49274 C281.354358,804.35485 258.90255,793.303459 238.315695,779.017704 C226.561136,770.844151 215.466708,761.553422 205.945419,750.783956 C196.395728,740.050647 188.388939,728.113204 181.297448,715.785368 C172.987851,701.206246 167.739781,688.79969 163.263621,677.95654 C160.634088,671.512069 162.296557,673.132683 166.510681,681.416535 C171.925502,692.052361 177.655042,703.05295 183.737782,713.560627 C188.522248,721.833953 193.722217,729.85144 199.444886,737.464804 C205.180381,745.069471 211.554935,752.153309 218.515866,758.639886 C232.458343,771.630888 248.583698,782.139938 265.242289,791.553323 C273.593573,796.249489 282.105195,800.683867 290.667209,805.04273 C299.23701,809.391523 307.831091,813.699584 316.452659,817.954555 C333.689381,826.476854 351.005813,834.848579 368.322245,843.233118 C388.989727,853.243764 409.67416,863.239765 430.208791,873.55934 C440.478627,878.720042 450.712272,883.932004 460.888653,889.307354 C471.059079,894.695519 481.124599,900.372933 490.770493,906.779875 C497.461141,911.26002 503.980915,916.067858 510.545126,921.973649 C517.085057,927.887221 523.718441,934.893712 530,944" id="Fill-68" fill="#1D4A41"></path>
            <path d="M713,595.057065 C713,711.03687 618.091358,805 502.071864,805 C386.05237,805 292,710.979804 292,595 C292,479.020196 386.509048,385 502.528542,385 C618.548036,385 713,479.077261 713,595.057065" id="Fill-69" fill="#97B6C9"></path>
            <path d="M405.434429,223.008953 C405.434429,223.008953 412.615092,240.487505 407.144111,267.904842 C401.67313,295.322179 402.698939,307.317264 426.634481,330.622 C450.570024,353.926737 478.608803,368.320839 503.91209,369.006272 L514.512117,386.484824 C514.512117,386.484824 594.18328,385.799391 657.783436,454.342733 C683.478811,482.035158 722.52338,551.560041 711.125503,621.931206 C701.108136,683.777864 665.989908,754.448335 585.292935,789.862395 C522.534854,817.404024 473.593736,763.587447 459.916284,769.070914 C446.238831,774.554382 484.517462,787.630624 486.359359,801.971719 C487.841083,813.509848 411.133368,788.720006 397,778.210027 C397,778.210027 399.963448,817.965165 468.350713,841.269902 C536.737978,864.574638 642.054365,839.899035 707.022267,783.008061 C771.990168,726.117086 814.390272,687.047381 820.545126,628.78554 C826.69998,570.523699 769.254678,461.539784 717.280356,414.244878 C665.306035,366.949972 603.757497,355.297604 576.402591,327.880267 C549.047685,300.46293 534.002487,264.134958 534.002487,264.134958 C534.002487,264.134958 545.970258,261.735941 541.867022,242.886522 C537.763787,224.037103 517.589543,223.694386 503.228218,230.206004 C488.866892,236.717621 474.847503,243.571955 450.228088,232.947737 C425.608672,222.323519 405.434429,223.008953 405.434429,223.008953" id="Fill-70" fill="#F9D9BF"></path>
            <path d="M508.606024,385.286647 C508.866154,385.405287 509.244037,385.00651 509.610726,384.90411 C509.983236,384.760207 510.37276,384.693895 510.759597,384.636604 C511.777283,384.489093 512.808849,384.319478 513.830565,384.230159 C514.875563,384.131818 515.881608,384.024455 516.813778,383.745221 C517.289266,383.610792 517.753112,383.442981 518.168156,383.250359 C518.572903,383.074879 518.970038,382.788427 519.051972,382.663471 C519.070776,382.612947 519.063613,382.64272 519.03854,382.590392 C519.000035,382.538966 518.79811,382.289054 518.565291,382.113574 C518.022645,381.681416 517.374334,381.210011 516.773035,380.778303 C515.54626,379.900904 514.291725,379.069518 513.00182,378.309857 C511.530585,377.428849 510.034277,376.587538 508.464094,375.902761 C507.547594,375.48594 506.859436,374.946418 506.218737,374.49396 C506.025318,374.377124 505.957264,374.33878 506.026214,374.272016 C506.090239,374.222846 506.313655,374.04917 506.630647,374 C507.40074,374.043306 508.183816,374.206606 508.936447,374.417723 C511.263739,375.20851 513.462085,376.313717 515.523873,377.599818 C516.555439,378.243545 517.557455,378.927871 518.536189,379.639714 L519.265538,380.178785 C519.500148,380.350205 519.749533,380.537865 520.034288,380.798603 C520.170845,380.908673 520.306506,381.042651 520.436795,381.219033 C520.566189,381.38504 520.698269,381.521724 520.80841,381.798252 C521.07436,382.267852 521.038094,382.895339 520.854078,383.409599 C520.524998,384.034379 520.13234,384.344739 519.753562,384.590141 C519.375232,384.830128 519.002274,385.001548 518.631107,385.14906 C517.887878,385.435962 517.15629,385.629035 516.38978,385.768878 C514.846908,386.004806 513.409253,386.029617 511.934884,385.976837 C511.426712,385.956538 510.921227,385.914134 510.374103,385.853686 C510.101884,385.821206 509.818024,385.786922 509.517151,385.750834 C509.36761,385.726474 509.212248,385.722414 509.056439,385.678657 C508.979877,385.644824 508.895256,385.669184 508.823172,385.57806 L508.606024,385.286647" id="Fill-71" fill="#DB9E7B"></path>
            <path d="M456,338.999772 C456,348.389012 448.389012,356 438.999772,356 C429.610988,356 422,348.389012 422,338.999772 C422,329.610988 429.610988,322 438.999772,322 C448.389012,322 456,329.610988 456,338.999772" id="Fill-72" fill="#F2B7AA"></path>
            <path d="M525,283.999772 C525,293.389012 517.389012,301 507.999772,301 C498.610988,301 491,293.389012 491,283.999772 C491,274.610988 498.610988,267 507.999772,267 C517.389012,267 525,274.610988 525,283.999772" id="Fill-73" fill="#F2B7AA"></path>
            <path d="M453.81004,237.621445 C453.81004,237.621445 456.54421,257.508479 445.151835,255.908373 C433.75946,254.308267 438.772105,238.764378 438.772105,238.764378 C438.772105,238.764378 421,239.678725 421,228.706568 C421,217.734412 438.544257,222.763317 438.544257,222.763317 C438.544257,222.763317 429.430357,209.048121 437.40502,204.704976 C445.379682,200.361831 451.531565,217.505825 451.531565,217.505825 C451.531565,217.505825 460.873312,204.704976 468.164432,208.819535 C475.455552,212.934093 460.873312,226.192116 460.873312,226.192116 C460.873312,226.192116 477.979191,228.653993 474.544162,238.992965 C470.898602,249.965121 453.81004,237.621445 453.81004,237.621445" id="Fill-74" fill="#E05642"></path>
            <path d="M454,229.5 C454,232.537375 451.537375,235 448.5,235 C445.462625,235 443,232.537375 443,229.5 C443,226.462625 445.462625,224 448.5,224 C451.537375,224 454,226.462625 454,229.5" id="Fill-75" fill="#FFFFFE"></path>
            <path d="M641.785173,440 C629.134227,445.783735 573.795302,472.052444 581.994693,485.407249 C591.242126,500.469058 629.259353,467.264614 638.506786,484.037993 C647.75422,500.811372 579.939708,507.999963 558.704861,526.827226 C537.470013,545.654488 533.70254,564.139436 542.264979,575.435793 C550.827417,586.732151 580.282205,578.174304 602.887043,566.193319 C625.49188,554.212334 647.411722,566.535633 645.356737,587.416778 C643.301752,608.297924 651.521692,608.640238 657.001653,601.451647 C662.481614,594.263056 667.619077,585.362895 673.441535,587.759092 C678.743853,589.941229 693.95942,616.02235 711.801259,616 C712.373001,609.686805 713,603.292382 713,596.83041 C713,534.491861 684.950822,478.4528 641.785173,440" id="Fill-76" fill="#7EAD49"></path>
            <path d="M536.158342,440.488152 C542.580926,437.045138 537.449281,412.866914 527.441977,405.59894 C513.22054,395.269897 495.329054,397.794774 492.576518,408.123817 C489.823981,418.45286 497.164078,421.66634 509.550491,425.338889 C521.936904,429.011437 529.735757,443.931166 536.158342,440.488152" id="Fill-77" fill="#7EAD49"></path>
            <path d="M366.603919,619.981363 C379.645486,618.953307 375.183897,590.510441 375.183897,574.40424 C375.183897,558.298039 385.823071,556.241928 409.847012,554.185817 C433.870952,552.129707 443.823728,536.023505 450.687711,525.742951 C457.551694,515.462397 489.812414,519.574619 491.871609,501.069622 C493.930804,482.564625 470.593262,469.885275 466.818071,463.716943 C463.04288,457.54861 473.338855,448.296112 465.102075,440.757039 C456.865296,433.217966 446.91252,443.841205 436.616546,444.86926 C426.320571,445.897316 424.261376,431.847225 414.994999,421.566671 C410.143078,416.183773 402.847122,413.904232 396.847085,413 C358.024855,435.412978 327.047699,469.851463 309,511.212188 C311.597331,547.510768 326.101843,561.721235 337.088791,569.949333 C349.443961,579.201832 353.562351,621.009418 366.603919,619.981363" id="Fill-78" fill="#7EAD49"></path>
            <path d="M416.525253,776.918362 C429.181869,778.291427 428.155657,762.157911 432.602577,742.591732 C437.049496,723.025553 460.310304,694.53445 458.942021,674.968271 C457.573738,655.402092 438.417779,646.820434 421.314243,640.984907 C404.210708,635.14938 403.868637,627.597521 391.896162,626.224456 C374.106205,624.184081 356.662879,636.179179 357.00495,657.118423 C357.347021,678.057667 378.213334,695.220982 384.712677,712.384297 C391.212021,729.547612 403.868637,775.545297 416.525253,776.918362" id="Fill-79" fill="#7EAD49"></path>
            <path d="M708,638.093038 C680.179334,616.198887 640.146579,639.215162 618.272517,641.162056 C595.283067,643.208069 559.941076,594.785776 543.471021,608.425858 C527.000967,622.065941 551.706049,653.438131 565.087968,675.603265 C578.469887,697.768399 559.941076,700.155414 550.67667,739.370651 C543.775717,768.582252 550.884376,788.148041 556.166688,797 C563.917679,795.271347 571.529131,794.993544 578.813013,792.453306 C647.199423,768.605895 693.826146,707.93799 708,638.093038" id="Fill-80" fill="#7EAD49"></path>
            <path d="M15.5305,269.502759 C15.5285,269.519759 15.5285,269.516759 15.4865,269.488759 C15.4815,269.486759 15.4745,269.488759 15.4695,269.486759 C15.5135,269.503759 15.5275,269.513759 15.5305,269.502759" id="Fill-102" fill="#31322E"></path>
            <line x1="15.5" y1="269.5" x2="15.5" y2="269.5" id="Fill-103" fill="#31322E"></line>
            <path d="M15.5275,269.438 C15.4775,269.518 15.4755,269.551 15.4725,269.562 C15.4745,269.545 15.4765,269.505 15.5275,269.438" id="Fill-104" fill="#31322E"></path>
            <path d="M15.5135,269.495409 C15.4935,269.491409 15.4765,269.495409 15.4565,269.494409 C15.4865,269.496409 15.5165,269.497409 15.5435,269.506409 C15.5325,269.502409 15.5295,269.499409 15.5135,269.495409" id="Fill-105" fill="#31322E"></path>
            <path d="M15.5011051,269.501 L15.5001051,269.495 C15.4991051,269.499 15.4981051,269.501 15.4991051,269.505 C15.4991051,269.503 15.5021051,269.502 15.5011051,269.501" id="Fill-106" fill="#31322E"></path>
            <path d="M15.553,269.501742 C15.511,269.498742 15.481,269.496742 15.447,269.499742 C15.477,269.496742 15.515,269.499742 15.553,269.501742" id="Fill-107" fill="#31322E"></path>
            <path d="M15.4935,269.504 C15.4975,269.502 15.5015,269.498 15.5065,269.496 C15.5025,269.498 15.4975,269.502 15.4935,269.504" id="Fill-108" fill="#31322E"></path>
            <path d="M15.505,269.471 C15.49,269.473 15.49,269.473 15.478,269.475 C15.486,269.474 15.495,269.474 15.505,269.472 L15.461,269.553 L15.461,269.582 L15.514,269.471 L15.539,269.418 C15.536,269.42 15.533,269.421 15.531,269.423 L15.505,269.471" id="Fill-109" fill="#31322E"></path>
            <polyline id="Fill-110" fill="#31322E" points="15.499 269.495 15.501 269.501 15.502 269.508 15.5 269.498 15.499 269.493 15.498 269.492 15.499 269.495"></polyline>
            <path d="M15.4837238,269.5215 C15.4927238,269.5175 15.4997238,269.5105 15.5087238,269.5075 C15.5227238,269.5015 15.5137238,269.4895 15.5097238,269.4785 C15.5147238,269.4935 15.5167238,269.5085 15.4967238,269.5135 C15.4917238,269.5145 15.4887238,269.5195 15.4837238,269.5215" id="Fill-111" fill="#31322E"></path>
            <path d="M15.522,269.4595 L15.522,269.4585 L15.478,269.5415 C15.481,269.5395 15.484,269.5375 15.486,269.5365 L15.522,269.4595" id="Fill-112" fill="#31322E"></path>
            <path d="M411,464 C411,472.284186 404.284186,479 396,479 C387.715814,479 381,472.284186 381,464 C381,455.715814 387.715814,449 396,449 C404.284186,449 411,455.715814 411,464" id="Fill-113" fill="#F2B7AA"></path>
            <path d="M592,464 C592,472.284186 598.715814,479 607,479 C615.284186,479 622,472.284186 622,464 C622,455.715814 615.284186,449 607,449 C598.715814,449 592,455.715814 592,464" id="Fill-114" fill="#F2B7AA"></path>
            <path d="M503.187285,317 C503.618763,317.262392 503.991759,317.625045 504.268052,318.048215 C504.504743,318.47274 504.684334,318.955072 504.762156,319.442373 C505.026477,320.722722 505.103839,322.124557 504.821559,323.485294 C504.262526,326.226641 503.004931,328.908373 501.077786,331.080676 C499.717502,332.646902 498.025666,333.952993 496.177724,334.937529 C494.320113,335.908517 492.295804,336.53311 490.239722,336.83931 C487.875572,337.166736 485.463532,336.984281 483.204374,336.378656 C482.542191,336.186264 481.963817,335.943292 481.482606,335.615866 C481.002777,335.279407 480.613664,334.902754 480.243431,334.603329 C480.019173,334.435777 479.944574,334.378873 480.041737,334.322871 C480.130611,334.285838 480.435915,334.146287 480.803846,334.170223 C481.74969,334.232095 482.648564,334.400099 483.532242,334.590232 C489.112906,335.680448 495.311085,333.929509 499.049332,329.738003 C501.288689,327.255436 502.653578,324.045757 502.999866,320.807175 C503.071702,320.24355 503.104397,319.679474 503.143078,319.06301 C503.143999,318.754552 503.14492,318.433449 503.14538,318.093377 C503.112225,317.755112 503.122816,317.396976 503.187285,317" id="Fill-115" fill="#0B0B09"></path>
            <path d="M505.983117,334 C506.115099,334.136956 506.459163,334.355638 506.596607,334.555011 C506.754531,334.757976 506.835541,334.96588 506.877866,335.167498 C507.011669,335.702302 507.059455,336.286051 506.897436,336.799301 C506.573396,337.831638 506.005417,338.82491 505.207152,339.617461 C504.07893,340.775978 502.555672,341.537546 500.997825,341.870732 C500.101256,342.066063 499.162816,342.03014 498.288092,341.829421 C497.766534,341.69426 497.398349,341.258245 497.092514,341.057525 C496.91229,340.91518 497.008318,340.733769 497.268642,340.684824 C497.432937,340.685273 497.611796,340.551459 497.777912,340.467489 C497.944027,340.395194 498.105592,340.348494 498.263516,340.303591 C499.248377,340.092094 500.209117,339.957832 501.110693,339.573455 C502.006808,339.201203 502.826919,338.687055 503.526425,338.034603 C504.357458,337.243399 504.91679,336.208367 505.266771,335.162109 C505.32366,334.978004 505.415593,334.807819 505.504339,334.614733 C505.546665,334.516842 505.590356,334.41536 505.636322,334.307591 C505.727344,334.208803 505.66909,334.073642 505.983117,334" id="Fill-116" fill="#0B0B09"></path>
            <path d="M484.809986,307.876077 C484.771152,308.521055 485.079999,309.396513 484.979944,310.343278 C484.903189,311.284982 484.594798,312.27729 484.150715,313.210254 C483.001673,315.670093 480.936139,317.889791 478.309562,319.208729 C475.67065,320.544688 472.674004,321.091217 469.743605,320.987708 C469.008492,320.975287 468.277034,320.9026 467.548318,320.815652 L466.460955,320.644977 C466.082205,320.56999 465.849655,320.534107 465.083018,320.354231 L464.598273,320.243821 L464.355672,320.188156 L464.233687,320.160554 C464.220437,320.129271 464.230489,320.079127 464.22729,320.039103 L464.230945,319.018732 L464.22729,317.802383 C464.189827,317.111402 464.178862,316.41996 464.10165,315.731739 C463.382528,307.814432 460.029062,300.252277 455.282583,293.842525 C452.558692,290.155756 449.475696,286.718789 446.178426,283.498042 C445.209393,282.547137 444.379708,281.633495 443.616726,280.78978 C442.828615,279.976427 442.119545,279.22012 441.430577,278.54754 C440.616881,277.746148 440.994717,277.840457 442.24153,278.725576 C443.07213,279.257383 443.835569,279.904661 444.67622,280.471431 C445.525551,281.029001 446.300412,281.68686 447.072531,282.334138 C451.834544,286.517751 456.142423,291.32426 459.502742,296.798289 C462.83976,302.261736 465.223736,308.426287 465.842345,314.890323 C465.93372,315.852269 465.986261,316.817896 466.007277,317.785362 L466.003622,318.734887 C465.988545,318.767089 466.040629,318.765249 466.070783,318.77399 L466.433999,318.839316 C468.203934,319.166865 470.012704,319.250133 471.781269,319.082218 C475.31383,318.737187 478.70613,317.338662 481.058125,314.814417 C481.878216,313.95092 482.602364,312.996334 483.219146,311.870154 C483.538502,311.310744 483.789783,310.691989 484.027815,310.02953 C484.269045,309.355109 484.296915,308.639746 484.809986,307.876077" id="Fill-117" fill="#0B0B09"></path>
            <path d="M436.786821,289.559923 C436.680123,289.04866 436.514942,288.550484 436.280117,288.118189 C436.003327,287.689956 435.775199,287.322641 435.686358,287 C435.59841,287.232392 435.50957,287.450796 435.408229,287.657918 C435.287691,287.866845 435.394836,288.033806 435.345281,288.217915 C435.262691,288.579364 435.331442,288.902908 435.285905,289.222842 C435.262244,289.856392 435.237244,290.438952 435.169832,291.02106 C434.812237,294.387812 433.123372,297.63724 430.538065,300.009895 C428.393836,302.006662 425.756296,303.558951 423.002236,304.555755 C420.244604,305.551657 417.261969,305.937022 414.49407,305.391013 C414.056117,305.298959 413.615932,305.208258 413.180211,305.094093 C412.954314,305.057542 412.752526,304.96278 412.52529,304.92668 C412.297161,304.89419 412.053408,304.888775 411.824833,304.844102 C411.472149,304.772805 411.169466,304.858091 411.061875,304.912692 C410.947587,304.979927 410.991784,305.086422 411.193127,305.298959 C411.529293,305.663115 411.883762,306.12835 412.37127,306.495214 C412.861009,306.846284 413.448518,307.155388 414.143172,307.346265 C414.602107,307.470358 415.070418,307.548875 415.539175,307.624233 C415.523996,307.7208 415.498103,307.819623 415.488282,307.915288 C415.419977,308.549289 415.353458,309.16479 415.283814,309.807365 C415.241849,310.249136 415.241403,310.70309 415.247653,311.17013 C415.247207,311.399815 415.357476,311.662892 415.45346,311.925066 C415.507032,312.117297 415.692303,312.359617 415.965075,312.592009 C416.309723,312.391204 416.316866,312.14708 416.418653,311.941311 C416.60437,311.310017 416.674907,310.653453 416.792319,310.012682 C416.919107,309.274894 416.975358,308.526276 416.990983,307.776304 C417.495455,307.806086 417.998588,307.811501 418.503506,307.791195 C418.48431,307.974401 418.470024,308.157156 418.469131,308.336752 C418.462881,308.989706 418.456631,309.625062 418.450827,310.286589 C418.445916,310.73197 418.477613,311.17735 418.503506,311.637622 C418.502167,311.860538 418.649044,312.12542 418.738331,312.387143 C418.774493,312.48732 418.805743,312.587497 418.876726,312.698503 C418.936102,312.804997 419.089676,312.946689 419.048157,312.999034 C419.289233,313.009863 419.291911,312.927285 419.344591,312.870879 C419.38968,312.809961 419.432538,312.752202 419.473164,312.697149 C419.549058,312.584338 419.617809,312.478746 419.677185,312.369093 C419.808883,312.04239 419.818705,311.686357 419.86067,311.348373 C419.884331,311.006328 419.907099,310.670149 419.930314,310.33397 C419.98344,309.432379 419.949064,308.551997 419.885224,307.686054 C420.385678,307.621977 420.884793,307.548424 421.374979,307.438771 C421.492391,307.412147 421.606679,307.374243 421.723645,307.345363 C421.707573,307.470358 421.687037,307.595354 421.681233,307.719446 C421.654447,308.417976 421.661144,309.114701 421.692841,309.811878 C421.716948,310.298773 421.804003,310.787022 421.924094,311.276625 C421.98347,311.518944 422.161598,311.763069 422.346422,312.002681 C422.487049,312.184984 422.682141,312.369996 423.329473,312.531091 C423.35983,312.217474 423.399563,311.986887 423.395099,311.754946 C423.383491,311.088455 423.30983,310.422415 423.306705,309.759533 C423.306258,308.810561 423.299115,307.860687 423.237954,306.91352 C424.629493,306.46137 425.977728,305.882421 427.250068,305.18344 C429.086257,304.179416 430.821998,302.946609 432.332289,301.44847 C434.44125,299.372735 436.066721,296.695488 436.749767,293.812021 C437.09888,292.386533 437.055575,290.899223 436.786821,289.559923" id="Fill-118" fill="#0B0B09"></path>
            <path d="M462.321128,269.997399 C461.828668,269.766253 461.365009,269.479502 460.985394,269.138986 C460.620415,268.757571 460.305014,268.440032 460,268.272761 C460.25827,268.241053 460.502376,268.206128 460.738927,268.155579 C460.981616,268.086189 461.124208,268.2337 461.323459,268.229105 C461.711572,268.235079 462.022725,268.38305 462.359845,268.415677 C463.009062,268.546644 463.607286,268.663826 464.215898,268.73873 C467.726392,269.203781 471.455495,268.310443 474.521689,266.306867 C477.094005,264.651619 479.34006,262.395757 481.051161,259.887151 C482.762733,257.374409 483.911021,254.488064 484.058807,251.589312 C484.076276,251.128857 484.096107,250.667024 484.090441,250.203812 C484.110744,249.968989 484.065417,249.743816 484.086664,249.508534 C484.111688,249.272333 484.167875,249.0274 484.180151,248.788441 C484.197621,248.418055 484.360988,248.136819 484.443615,248.042155 C484.54088,247.944733 484.637672,248.014583 484.802927,248.268247 C485.087166,248.692858 485.470087,249.160665 485.718914,249.737383 C485.951688,250.312722 486.116471,250.975372 486.133941,251.716144 C486.143384,252.20509 486.104195,252.692198 486.062173,253.178847 C486.163686,253.187118 486.270866,253.18574 486.370492,253.199526 C487.031985,253.285919 487.67412,253.369554 488.344584,253.456866 C488.803521,253.523499 489.26482,253.633787 489.73745,253.754186 C489.971168,253.809789 490.210552,253.983954 490.452297,254.143872 C490.634078,254.24497 490.833328,254.488983 491,254.818471 C490.708206,255.113952 490.458907,255.061565 490.224245,255.112574 C489.535366,255.143822 488.850737,255.054213 488.169885,255.014692 C487.388464,254.960927 486.613653,254.834095 485.847813,254.666824 C485.750076,255.178747 485.628259,255.682398 485.47953,256.181913 C485.670281,256.207647 485.859617,256.237977 486.042342,256.280714 C486.70714,256.434199 487.353997,256.583548 488.027766,256.738871 C488.481038,256.842726 488.92581,256.983344 489.386164,257.121664 C489.613272,257.174511 489.84463,257.386357 490.088263,257.539382 C490.180806,257.600041 490.274765,257.656104 490.369669,257.753526 C490.462684,257.839459 490.567503,258.027409 490.631245,257.998918 C490.580724,258.242013 490.496208,258.22455 490.425384,258.263611 C490.352199,258.29394 490.282792,258.322431 490.21669,258.349544 C490.083069,258.397795 489.957947,258.440532 489.831881,258.473159 C489.466431,258.525087 489.102397,258.447885 488.748279,258.407446 C488.394633,258.347246 488.047124,258.287966 487.700088,258.229146 C486.770882,258.061875 485.885585,257.812347 485.022009,257.536625 C484.82984,258.021435 484.628701,258.502569 484.393094,258.965322 C484.335963,259.07607 484.268445,259.181304 484.209425,259.291133 C484.340213,259.304919 484.472417,259.315488 484.599899,259.339844 C485.316635,259.483679 486.022511,259.6606 486.722721,259.862796 C487.210933,260.005711 487.684979,260.212043 488.151471,260.451921 C488.382829,260.570021 488.585384,260.807601 488.782274,261.050696 C488.931948,261.236348 489.070291,261.476226 489.069346,262.162772 C488.743085,262.116359 488.49898,262.099816 488.264317,262.038698 C487.590076,261.864074 486.932832,261.627873 486.259535,261.46244 C485.29586,261.230374 484.33313,260.990956 483.386454,260.698691 C482.574342,261.978958 481.643719,263.184321 480.611109,264.285369 C479.125228,265.874903 477.432542,267.308195 475.527857,268.451061 C472.884245,270.051165 469.75195,271.021245 466.6494,270.999647 C465.11347,271.000566 463.613425,270.593417 462.321128,269.997399" id="Fill-119" fill="#0B0B09"></path>
            <path d="M417.753473,436.003105 C423.26688,435.743344 423.483236,451.869817 417.982663,450.963148 C412.48209,450.056478 412.940471,436.229773 417.753473,436.003105" id="Fill-120" fill="#0B0B09"></path>
            <path d="M586.246527,436.003105 C580.73312,435.743344 580.516764,451.869817 586.017337,450.963148 C591.51791,450.056478 591.059529,436.229773 586.246527,436.003105" id="Fill-121" fill="#0B0B09"></path>
            <path d="M489.394928,451 C490.113559,452.332253 490.271117,453.968676 490.431424,455.644072 C490.640738,457.830151 490.972801,460.058786 491.329597,462.27891 C491.700592,464.516952 492.235557,466.735732 493.10854,468.775773 C493.962744,470.81447 495.190691,472.67622 496.853297,473.93232 C498.032236,474.845724 499.446139,475.401203 500.956225,475.605476 C502.469517,475.817364 504.066627,475.730906 505.474575,475.299514 C508.340395,474.43449 510.380867,471.910197 511.566676,469.006476 C512.931112,465.654788 513.570964,461.916952 513.833866,458.187628 C513.980432,455.985423 514.335396,454.200723 514.72975,452.587595 C514.946393,451.623122 515.515709,451.859648 515.701207,453.141282 C515.925636,454.772329 516.044262,456.48177 515.98472,458.162542 C515.89449,460.806891 515.595863,463.458406 514.986698,466.07946 C514.343183,468.6817 513.416612,471.314401 511.671562,473.586041 C510.806366,474.714022 509.730481,475.732698 508.460854,476.493346 C507.194434,477.264297 505.737936,477.698377 504.298842,477.886523 C502.851505,478.087212 501.411495,478.01285 499.980646,477.733318 C498.550713,477.465882 497.147803,476.893828 495.950085,476.051651 C493.023349,474.042519 491.417079,470.886593 490.467149,467.834595 C489.515845,464.73556 489.13111,461.555443 489.018895,458.397277 C488.959353,456.187456 489.028972,454.020641 489.394928,451" id="Fill-122" fill="#0B0B09"></path>
            <path d="M522,412.92 C521.519171,413.039674 521.156596,413.016696 520.931028,412.906597 C520.607524,412.779264 520.282977,412.646187 520.047512,412.45088 C519.567204,412.058829 519.113464,411.650502 518.711297,411.205795 C518.135657,410.554292 517.577208,409.921937 517.006777,409.276178 C516.690045,408.899924 516.388941,408.510267 516.132638,408.07992 C515.960206,407.844881 516.005528,407.493041 516.005007,407.215877 C516.000319,407.055514 516.15608,406.966956 516.35508,407.011474 C516.62076,407.059344 516.840076,407.162742 517.006777,407.30635 C517.565226,407.731431 518.00438,408.260388 518.487293,408.750093 L519.871434,410.272341 C520.418943,410.880762 520.998751,411.469077 521.521255,412.099039 C521.67337,412.33695 521.920296,412.516461 522,412.92" id="Fill-123" fill="#1D4A41"></path>
            <path d="M529,425.81294 C528.256703,426.077376 527.941308,426.012855 527.682402,425.913631 C527.34347,425.783124 527.005009,425.640886 526.78894,425.420931 C526.352565,424.976621 525.972208,424.493209 525.657283,423.97167 C525.208199,423.223333 524.811366,422.442247 524.437128,421.648942 C524.251657,421.17726 524.155627,420.6523 524.019112,420.153734 C523.946148,419.855084 524.099609,419.488492 524.185283,419.197662 C524.241301,419.022187 524.443719,418.945935 524.602358,419.041738 C524.789712,419.174689 525.032142,419.284667 525.149356,419.46503 C525.534891,420.02225 525.961852,420.55552 526.263595,421.162596 L527.261091,422.930059 C527.664985,423.629029 528.167263,424.269832 528.582455,424.961958 C528.729796,425.201465 528.832888,425.467366 529,425.81294" id="Fill-124" fill="#1D4A41"></path>
            <path d="M557.556609,543.414305 C557.507483,543.517116 557.463918,543.703287 557.408304,543.860745 C557.351762,544.013572 557.284098,544.141854 557.211335,544.255779 L557.216897,544.265505 C557.20392,544.170104 557.202066,544.081649 557.204384,543.995974 C557.21736,543.570374 557.259998,543.141996 557.432403,542.813649 C557.779995,542.151863 558.198495,541.528977 558.699953,540.984821 C559.412283,540.199384 560.25299,539.53806 561.107601,538.915175 C561.59701,538.556263 562.170767,538.303404 562.749622,538.079258 C563.087018,537.939861 563.499492,538.024148 563.80769,538.036652 C563.988437,538.039893 564.045906,538.198278 563.962484,538.406215 C563.85728,538.676209 563.724732,538.919806 563.560205,539.111071 C563.04577,539.719137 562.452084,540.21374 561.883425,540.741224 C561.311522,541.264541 560.776695,541.825832 560.236769,542.379251 C559.599982,543.04891 559.06979,543.813971 558.526621,544.55495 C558.414465,544.69342 558.321774,544.847173 558.125732,545 L557,543.107262 C557.06442,543.13366 557.145061,543.167004 557.236362,543.204516 C557.330443,543.253142 557.423134,543.241565 557.556609,543.414305" id="Fill-125" fill="#1D4A41"></path>
            <path d="M571.321962,533.974195 C571.246778,533.82229 571.149454,533.625074 571.058127,533.403259 C570.992629,533.200863 570.988478,533.019182 571.016153,532.858647 C571.078883,532.428826 571.207572,531.990374 571.458031,531.670598 C571.966328,531.025436 572.535972,530.454931 573.109768,529.979798 C573.536885,529.63715 573.884207,529.33032 574.326546,528.941496 C574.757814,528.573387 575.205227,528.185858 575.727824,527.866945 C576.323298,527.497972 576.999952,527.192869 577.711199,527.021113 C578.149848,526.950771 578.554826,527.070309 578.866631,527.172586 C579.046519,527.212288 579.037294,527.387928 578.881852,527.542853 C578.668293,527.706841 578.478258,527.909668 578.284533,528.068477 C577.632787,528.494414 577.030855,528.99846 576.446913,529.580186 C575.846365,530.120482 575.248585,530.782043 574.533647,531.38923 C573.714928,532.091356 572.934031,532.759391 572.31734,533.430014 C572.20664,533.539196 572.096862,533.647946 571.975553,533.768347 C571.922971,533.830921 571.849632,533.880981 571.768913,533.934061 C571.717715,533.952618 571.724172,534.01174 571.622236,533.99793 C571.524912,533.990162 571.425282,533.982394 571.321962,533.974195" id="Fill-126" fill="#1D4A41"></path>
            <path d="M570.490131,545 C570.072603,544.429519 569.978322,544.034953 570.003866,543.742259 C570.018728,543.340736 570.057276,542.936728 570.211005,542.628629 C570.519855,542.007461 570.889546,541.423066 571.330296,540.910727 C571.951712,540.166816 572.679948,539.531733 573.433728,538.945351 C573.865654,538.608926 574.348203,538.341079 574.824251,538.076709 C575.110343,537.928126 575.500934,538.033973 575.798174,538.074722 C575.967228,538.089133 576.029463,538.249146 575.987199,538.485686 C575.914283,538.762976 575.796316,538.98759 575.645838,539.160523 C574.611539,540.13203 573.629256,541.157206 572.680877,542.214186 C572.120767,542.852249 571.649364,543.575289 571.168672,544.278451 C570.989864,544.513501 570.825918,544.758987 570.490131,545" id="Fill-127" fill="#1D4A41"></path>
            <path d="M583.108542,535.859643 C583.074678,535.56076 582.936869,535.028153 583.034229,534.8034 C583.112305,534.443608 583.20355,534.089953 583.386041,533.84773 C583.755725,533.359508 584.143753,532.894421 584.607034,532.519991 C585.262213,531.973692 585.949374,531.461388 586.637947,530.94578 C587.041025,530.660118 587.506658,530.439615 587.932783,530.174256 C588.188646,530.023634 588.494835,530.004747 588.776567,530 C588.943536,529.997665 589.050773,530.160563 588.975519,530.316851 C588.875808,530.515162 588.769982,530.720555 588.634525,530.889592 C587.810025,531.986912 586.793158,532.891116 585.820502,533.843009 C585.243399,534.41575 584.676174,535.005017 584.082139,535.566898 C583.978194,535.66322 583.865784,535.749627 583.741145,535.840756 C583.67812,535.88514 583.612273,535.931884 583.542663,535.981462 C583.487163,536.048982 583.270808,535.914414 583.108542,535.859643" id="Fill-128" fill="#1D4A41"></path>
            <path d="M587.079574,524.979595 C586.964958,524.460437 586.977099,524.032781 587.097058,523.796444 C587.235471,523.450992 587.38894,523.112389 587.616715,522.896604 C588.075665,522.45965 588.564726,522.066245 589.093612,521.742322 C589.852215,521.283839 590.631216,520.856672 591.440328,520.485286 C591.916276,520.294945 592.399024,520.115857 592.921595,520.011634 C593.23679,519.963682 593.575296,520.075734 593.848723,520.133962 C594.00462,520.157938 594.038131,520.295923 593.957997,520.492626 C593.84678,520.728962 593.69574,520.913432 593.543242,521.087137 C593.010471,521.541216 592.410679,521.876393 591.828857,522.242886 L590.052793,523.290009 C589.351498,523.716197 588.695855,524.223122 588.014472,524.684052 C587.7527,524.800508 587.580291,525.076967 587.079574,524.979595" id="Fill-129" fill="#1D4A41"></path>
            <path d="M686.887592,585 C686.777959,584.914193 686.380714,584.946481 686.164202,584.873943 C685.91512,584.81777 685.732553,584.713828 685.56237,584.604136 C685.117877,584.313541 684.67155,584.011446 684.353662,583.635485 C683.715592,582.873392 683.078439,582.110413 682.556883,581.283301 C681.808263,580.089958 681.065607,578.906347 680.319281,577.716543 C679.90277,577.028314 679.549102,576.295855 679.164242,575.5833 C678.956445,575.150724 679.000481,574.654014 679.01149,574.234708 C679,573.999844 679.183508,573.944998 679.494974,574.053363 C679.869742,574.210381 680.135796,574.463823 680.388088,574.718591 C681.792208,576.451105 683.027522,578.301714 684.255497,580.154535 C684.998153,581.254993 685.743562,582.35722 686.440805,583.48864 C686.56053,583.685908 686.668327,583.890254 686.782088,584.114503 C686.839886,584.36706 687.169242,584.505944 686.887592,585" id="Fill-130" fill="#1D4A41"></path>
            <path d="M698.903327,587 C698.687015,586.987453 698.490016,586.938611 698.223489,586.91307 C697.990277,586.870053 697.807281,586.786707 697.637804,586.69664 C697.199386,586.456014 696.766761,586.195671 696.467401,585.858257 C695.862403,585.177154 695.299412,584.465581 694.822366,583.709646 C694.15991,582.615401 693.556361,581.487548 692.969228,580.352974 C692.626412,579.706823 692.411065,578.993009 692.149366,578.306529 C692.00548,577.896523 692.010791,577.503097 692.000169,577.167474 C691.993892,576.968521 692.163851,576.942083 692.351193,577.113703 C692.585853,577.337302 692.836447,577.566278 693.044551,577.811833 C694.360289,579.354173 695.32114,581.084712 696.469815,582.715326 C697.121166,583.706958 697.843977,584.660501 698.526712,585.636002 C698.638731,585.808966 698.7662,585.974313 698.849249,586.183573 C698.88691,586.417478 699.132676,586.562212 698.903327,587" id="Fill-131" fill="#1D4A41"></path>
            <path d="M580.958719,638.258971 C580.829891,638.314228 580.513084,638.643664 580.312573,638.752072 C580.098528,638.882584 579.920575,638.929947 579.75766,638.950471 C579.326061,639.009938 578.876415,639.038882 578.529031,638.901529 C577.831755,638.620509 577.181599,638.222133 576.624179,637.714823 C576.225163,637.351707 575.850208,636.957541 575.51335,636.529169 C575.206068,636.074484 574.918335,635.606643 574.664689,635.119331 C574.366429,634.567289 574.171433,633.946834 574.022052,633.324273 C573.944856,632.948527 574.088722,632.530154 574.170931,632.204402 C574.22156,632.009161 574.432598,631.942853 574.612055,632.053366 C574.829609,632.204402 575.079746,632.338597 575.255193,632.510682 C575.778024,633.071144 576.207117,633.678443 576.715412,634.222065 C577.230724,634.755162 577.710947,635.312467 578.229769,635.831881 C578.854861,636.449705 579.611287,636.895969 580.313074,637.385387 C580.437391,637.467483 580.552685,637.563788 580.6765,637.672722 C580.73916,637.725348 580.804827,637.780079 580.874504,637.838493 C580.928141,637.924799 581.069501,637.869542 580.958719,638.258971" id="Fill-132" fill="#1D4A41"></path>
            <path d="M583.964092,633.961413 C583.847838,633.923617 583.558361,634.00496 583.353642,633.997976 C583.127156,634.009479 582.942817,633.970451 582.771909,633.919098 C582.321715,633.785992 581.863183,633.635632 581.505158,633.394891 C580.789108,632.902727 580.119374,632.358389 579.520967,631.759823 C578.66921,630.899564 577.854506,630.003563 577.202835,629.00609 C576.823967,628.439157 576.470574,627.857434 576.182023,627.242435 C576.016211,626.877626 576.002779,626.511995 576,626.190733 C576.001389,625.998469 576.207034,625.934381 576.38952,626.078579 C576.609986,626.272487 576.888347,626.442977 577.105107,626.64428 C577.783642,627.281463 578.365838,627.97534 579.015193,628.624848 L580.878961,630.625546 C581.632065,631.413501 582.503275,632.107377 583.301768,632.854661 C583.443033,632.982837 583.574571,633.118819 583.716299,633.269179 C583.847374,633.428989 584.091925,633.512796 583.964092,633.961413" id="Fill-133" fill="#1D4A41"></path>
            <path d="M591.985757,648.511946 C591.888201,648.519482 591.62893,648.810363 591.468972,648.871151 C591.294514,648.962083 591.137193,648.992226 590.993056,648.995743 C590.609862,649.010814 590.216561,648.992226 589.892253,648.834979 C589.235286,648.522496 588.616111,648.10401 588.074279,647.57952 C587.293829,646.833479 586.599509,645.971889 585.986927,645.049008 C585.624826,644.530045 585.375223,643.910102 585.118149,643.3198 C584.96742,642.97014 584.987634,642.578783 585.033336,642.229123 C585.060142,642.021136 585.260967,641.929702 585.40906,642.061326 C585.595823,642.233644 585.785222,642.412493 585.942103,642.610433 C586.942275,643.839266 587.890152,645.103768 589.054236,646.110547 C589.742403,646.713911 590.497365,647.207253 591.247933,647.677485 C591.379326,647.757867 591.504567,647.849301 591.639916,647.95229 C591.704514,648.010064 591.771748,648.07035 591.842938,648.134153 C591.892595,648.24317 592.047279,648.146712 591.985757,648.511946" id="Fill-134" fill="#1D4A41"></path>
            <path d="M579.010748,704 C578.780686,703.796589 578.629343,703.662184 578.519136,703.564763 C578.367285,703.410965 578.289582,703.269794 578.237272,703.135841 C578.095579,702.78269 577.97166,702.420068 578.005687,702.100744 C578.073233,701.456233 578.204769,700.822095 578.433307,700.21998 C578.796429,699.370253 579.263155,698.555256 579.760353,697.75875 C580.078783,697.315395 580.452062,696.895944 580.890348,696.509868 C581.139708,696.278494 581.483024,696.154462 581.735432,696.028627 C581.879157,695.9506 581.977174,696.036746 581.996981,696.230234 C582.008154,696.472884 581.987332,696.710573 581.950765,696.936536 C581.817705,697.63968 581.547522,698.280132 581.265151,698.918329 C580.98735,699.556977 580.719198,700.198782 580.477963,700.849156 C580.151915,701.612738 579.943184,702.413754 579.693315,703.197631 C579.650147,703.334291 579.593266,703.466891 579.527244,703.610317 C579.489662,703.680225 579.472395,703.760056 579.412467,703.83222 C579.393168,703.91611 579.255537,703.970233 579.010748,704" id="Fill-135" fill="#1D4A41"></path>
            <path d="M573.323104,722 C572.608457,721.6385 572.342416,721.280188 572.248204,720.960119 C572.096878,720.533058 571.968008,720.086419 572.007059,719.677114 C572.081258,718.849853 572.290673,718.041715 572.601134,717.271365 C573.082447,716.180492 573.709717,715.14653 574.399468,714.161739 C574.823668,713.61175 575.322555,713.107745 575.798986,712.60465 C576.123604,712.333298 576.468724,712.168938 576.759172,712.024156 C576.93881,711.943115 577.054989,712.075604 576.973468,712.278208 C576.83874,712.521787 576.796271,712.830473 576.700594,713.099094 L575.582249,715.490729 C575.212722,716.282477 574.8759,717.086518 574.590334,717.904673 C574.215437,718.870341 574.010415,719.885636 573.744375,720.871338 C573.634542,721.210984 573.564737,721.558369 573.323104,722" id="Fill-136" fill="#1D4A41"></path>
            <path d="M584.955485,716 C584.380947,715.624126 584.130468,715.223194 584.093678,714.876406 C584.005481,714.41059 583.954075,713.929561 584.056887,713.487015 C584.263519,712.593419 584.57246,711.714143 584.991268,710.878271 C585.573366,709.673237 586.352017,708.547405 587.193161,707.474375 C587.65884,706.850156 588.253033,706.300217 588.815476,705.747145 C589.147096,705.420493 589.513994,705.222712 589.813862,705.041487 C589.992272,704.934094 590.054765,705.044171 589.946913,705.268353 C589.802775,705.552496 589.661156,705.851405 589.502906,706.131968 L588.011626,708.759058 C587.53486,709.638335 587.086821,710.527008 586.662469,711.422393 C586.16756,712.496766 585.816285,713.619018 585.492225,714.736348 C585.436787,714.930997 585.369254,715.122066 585.291137,715.329244 C585.194876,715.531948 585.1979,715.778503 584.955485,716" id="Fill-137" fill="#1D4A41"></path>
            <path d="M429.253661,734 C429.295362,733.908237 428.859607,733.755877 428.729349,733.614338 C428.556921,733.470201 428.458056,733.320005 428.386368,733.171107 C428.189106,732.779818 428.009182,732.365155 428.002622,731.964343 C427.98388,731.156227 428.064939,730.341618 428.267823,729.554711 C428.539116,728.420664 429.086387,727.357604 429.649589,726.330036 C429.969612,725.738341 430.41427,725.202482 430.83222,724.670952 C431.077274,724.356276 431.417444,724.174915 431.72013,724.027749 C431.900055,723.940314 432.041089,724.069301 431.98908,724.277498 C431.917391,724.543264 431.844297,724.817686 431.744026,725.072197 C431.437123,725.877716 431.134906,726.675011 430.856116,727.476635 C430.572641,728.277826 430.386156,729.102823 430.158439,729.911805 C429.907294,730.885268 429.82108,731.88773 429.739083,732.875909 C429.722215,733.047314 429.691759,733.217854 429.654743,733.403111 C429.638344,733.495739 429.621008,733.593128 429.603202,733.695279 C429.591489,733.746787 429.590552,733.800027 429.569935,733.853699 C429.54557,733.879237 429.58446,733.910402 429.503869,733.932477 L429.253661,734" id="Fill-138" fill="#1D4A41"></path>
            <path d="M422.954996,725 C422.763785,724.867718 422.52955,724.704654 422.395702,724.550741 C422.260898,724.397245 422.196364,724.247492 422.15621,724.102315 C422.044829,723.719613 421.960218,723.32152 422.019494,722.952961 C422.145693,722.211684 422.331168,721.466248 422.681086,720.778632 C423.165807,719.7886 423.776728,718.845156 424.460787,717.952463 C424.839864,717.434151 425.347531,716.986557 425.813131,716.530226 C426.091344,716.262751 426.441261,716.125893 426.752458,716.016491 C426.937933,715.95243 427.05505,716.083047 426.973785,716.269407 C426.865273,716.506515 426.753892,716.751944 426.61861,716.976573 C425.78684,718.397978 424.909178,719.780696 424.30734,721.272817 C423.952165,722.161767 423.661523,723.066524 423.430635,723.978769 C423.390003,724.137257 423.337419,724.292834 423.27671,724.461722 C423.17728,724.622706 423.261891,724.837352 422.954996,725" id="Fill-139" fill="#1D4A41"></path>
            <path d="M435.428205,719.963416 C435.526286,719.910968 435.266572,719.671673 435.175497,719.499987 C435.069911,719.321336 435.035883,719.165631 435.024373,719.019759 C434.990345,718.635003 434.973331,718.241642 435.102938,717.912612 C435.356146,717.243898 435.703432,716.610423 436.132284,716.019152 C436.739784,715.168099 437.441861,714.362529 438.235514,713.614323 C438.722415,713.203753 439.292884,712.842762 439.819817,712.463742 C440.140081,712.245755 440.506882,712.135941 440.792617,712.021211 C440.962257,711.953192 441.043323,712.054811 440.976769,712.239608 C440.884193,712.472757 440.798622,712.721476 440.682527,712.946019 C440.286201,713.63645 439.935913,714.346139 439.436502,714.971829 C438.98463,715.623742 438.470207,716.241237 438.010829,716.887824 C437.459876,717.658156 437.008505,718.47602 436.487577,719.257415 C436.399004,719.394681 436.297921,719.525802 436.183827,719.666756 C436.123277,719.735594 436.07774,719.815905 435.995172,719.884744 C435.912604,719.953582 435.888084,720.0552 435.428205,719.963416" id="Fill-140" fill="#1D4A41"></path>
            <path d="M382.849589,691.984174 C382.702815,691.9897 382.54847,691.979568 382.32978,691.999833 C382.135903,692.003057 381.992072,691.959303 381.865905,691.902194 C381.529459,691.756657 381.193433,691.583947 380.984416,691.322809 C380.559232,690.799612 380.192926,690.218845 379.919984,689.590641 C379.511202,688.698535 379.27611,687.721686 379.107046,686.744377 C379.004851,686.185257 378.987608,685.60449 379.006953,685.028329 C379.000645,684.69212 379.156672,684.38815 379.340456,684.120564 C379.44896,683.962131 379.681528,683.958447 379.767322,684.117801 C379.876667,684.324132 379.974657,684.539213 380.045731,684.756137 C380.310682,685.426713 380.481849,686.115251 380.729137,686.77938 C380.971379,687.443968 381.228339,688.098885 381.492029,688.748736 C381.819644,689.520636 382.264173,690.226214 382.695665,690.923963 C382.76674,691.047854 382.8273,691.178653 382.890804,691.32373 C382.932439,691.484466 383.13641,691.544799 382.849589,691.984174" id="Fill-141" fill="#1D4A41"></path>
            <path d="M377.957117,679.973945 C377.525909,680.038984 377.121772,679.982854 376.929952,679.798873 C376.632941,679.584153 376.340957,679.334687 376.164606,679.01929 C375.809585,678.383596 375.522241,677.688654 375.340863,676.958965 C375.069376,675.916551 374.978881,674.817563 375.004018,673.734611 C375.05236,673.11139 375.162192,672.493961 375.323847,671.899251 C375.436773,671.549552 375.60887,671.281376 375.828148,671.064875 C375.953063,670.936132 376.141789,671.008299 376.173501,671.199408 C376.214108,671.445756 376.229577,671.697005 376.284107,671.943798 L376.509959,674.219289 C376.586533,674.970361 376.708354,675.713414 376.85802,676.447113 C377.047906,677.322027 377.370442,678.149721 377.714248,678.947123 C377.775739,679.08522 377.826787,679.228664 377.880157,679.386362 C377.909548,679.558761 378.077391,679.663893 377.957117,679.973945" id="Fill-142" fill="#1D4A41"></path>
            <path d="M367.83842,668 C367.57805,667.951216 367.405924,667.918969 367.28083,667.895817 C367.091249,667.848273 366.943852,667.776337 366.824091,667.694066 C366.502628,667.480739 366.193287,667.240125 366.019707,666.954449 C365.670122,666.378548 365.40151,665.762546 365.246839,665.126285 C365.010227,664.216751 364.96368,663.276209 365.023803,662.349725 C365.05144,661.818474 365.182837,661.291357 365.302598,660.775403 C365.371933,660.470296 365.628424,660.240432 365.910613,660.054804 C366.07789,659.94442 366.338746,660.008914 366.37705,660.175524 C366.423596,660.389265 366.46093,660.607966 366.456567,660.820467 C366.423596,662.159549 366.62045,663.487469 366.908942,664.788517 C367.098522,665.564102 367.430652,666.309093 367.782661,667.033 C367.845208,667.159094 367.895634,667.288083 367.947998,667.429887 C367.936847,667.59319 368.128852,667.699027 367.83842,668" id="Fill-143" fill="#1D4A41"></path>
            <path d="M424,655.808026 C423.46179,656.024896 423.008322,656.0464 422.701353,655.930644 C422.27403,655.800705 421.83679,655.662531 421.510438,655.413634 C420.850973,654.911722 420.227117,654.367717 419.663664,653.767894 C418.850939,652.915055 418.167133,651.939141 417.449969,650.996626 C417.039325,650.456281 416.689533,649.860576 416.342446,649.264412 C416.133743,648.917146 416.042689,648.567134 416.002571,648.224901 C415.976426,648.024045 416.154027,647.929793 416.338389,648.059732 C416.578645,648.223986 416.803125,648.418437 417.03076,648.602364 C417.751529,649.178854 418.37854,649.842732 419.030343,650.483276 C419.669975,651.135258 420.34071,651.758416 420.959607,652.429614 C421.701111,653.228464 422.532317,653.943586 423.288697,654.729167 C423.419869,654.865969 423.541574,655.011464 423.671845,655.172972 C423.801664,655.334481 423.968447,655.485466 424,655.808026" id="Fill-144" fill="#1D4A41"></path>
            <path d="M339.18238,556.928297 C339.05152,556.898606 339.132921,556.886235 339.068006,556.960874 C339.009789,557.016955 339.003091,556.997987 339.069552,556.983554 C339.123132,556.951802 339.187532,557.04211 339.093251,556.908091 C339.102009,556.928709 339.087584,556.917987 339.111798,556.869741 C339.036579,556.947678 338.689851,556.871802 338.541989,556.802525 C338.045337,556.621496 337.551262,556.424385 337.209686,556.143563 C336.522411,555.572848 335.86914,554.988937 335.330757,554.327089 C334.57084,553.376172 333.824317,552.355153 333.386914,551.200115 C333.11798,550.546514 333.009789,549.838481 333,549.14653 C333.040185,548.729628 333.275631,548.382003 333.49253,548.10448 C333.620814,547.939121 333.872746,547.977884 333.98712,548.16551 C334.105616,548.411281 334.304997,548.648392 334.456466,548.879729 C335.133952,550.378681 336.154044,551.788149 337.32509,553.216999 C338.036064,554.065649 338.834106,554.894093 339.579598,555.736145 C339.708913,555.88336 339.824833,556.037585 339.946935,556.207893 L339.992787,556.272634 L339.998454,556.280881 L339.999485,556.281706 L340,556.282118 L339.595569,556.475106 L339.595569,556.475518 L339.591963,556.480054 L339.585781,556.489126 C339.575992,556.499848 339.574961,556.51593 339.551777,556.519229 C339.515198,556.529126 339.479134,556.550981 339.443071,556.574486 C339.290572,556.667269 339.145286,556.795515 339.111283,556.87139 C339.09119,556.908915 339.098918,556.928709 339.095827,556.914689 C339.11695,557.008296 339.173622,556.972832 339.100979,556.97943 C339.042246,556.979018 338.982998,557.02479 339.046883,556.98108 C339.069037,556.962935 339.10407,556.922111 339.100464,556.905616 C339.089129,556.889947 339.11798,556.926647 339.18238,556.928297" id="Fill-145" fill="#1D4A41"></path>
            <path d="M333.966458,539 C333.40992,538.948111 333.003186,538.731907 332.771078,538.455621 C332.435327,538.102412 332.110898,537.715976 331.938014,537.279016 C331.587892,536.39918 331.324429,535.473372 331.186819,534.527991 C331.083176,533.851614 331.032225,533.167044 331,532.482474 C331.007839,531.795628 331.037015,531.110148 331.106691,530.429674 C331.167658,529.649064 331.39367,528.880743 331.631439,528.136546 C331.791694,527.698676 332.043834,527.369136 332.249379,527.086022 C332.377844,526.918976 332.546808,527.005913 332.565969,527.254434 C332.565534,527.57123 332.664822,527.911694 332.692693,528.233497 C332.779788,529.245786 332.771078,530.234408 332.805916,531.224849 C332.867754,532.213926 332.914785,533.201181 333.037154,534.18161 C333.185651,535.351842 333.493532,536.492944 333.82667,537.610832 C333.898959,538.014565 334.072714,538.380974 333.966458,539" id="Fill-146" fill="#1D4A41"></path>
            <path d="M344.978742,544.942674 C344.706015,544.981741 344.39156,545.015357 344.148639,544.992644 C343.908202,544.968567 343.722907,544.898155 343.562947,544.812751 C343.135228,544.592428 342.710987,544.337579 342.430312,544.002325 C341.864988,543.326364 341.378153,542.584987 341.022466,541.795458 C340.489432,540.670673 340.179447,539.464119 340.042835,538.247117 C339.937023,537.553894 340.054261,536.833414 340.105428,536.142916 C340.14666,535.732252 340.425845,535.389729 340.594747,535.104898 C340.706023,534.935 340.91417,534.977701 341.000111,535.188031 C341.117349,535.458778 341.304631,535.729981 341.366727,536.004817 C341.84313,537.724247 342.279791,539.407789 342.934533,541.046359 C343.33493,542.018961 343.898764,542.927056 344.482965,543.806987 C344.585797,543.959623 344.678196,544.11771 344.772085,544.293969 C344.833685,544.488853 345.071638,544.601967 344.978742,544.942674" id="Fill-147" fill="#1D4A41"></path>
            <path d="M422.502249,535 C422.004464,534.162275 421.980159,533.789952 422.007381,533.477125 C422.04384,533.067379 422.086618,532.660511 422.247523,532.382708 C422.569333,531.815109 422.921768,531.289252 423.363649,530.856475 C423.998518,530.236098 424.616374,529.602286 425.336314,529.051959 C425.737361,528.726177 426.225423,528.471405 426.664873,528.168173 C426.943904,528.006962 427.340576,528.013199 427.671136,528.000245 C427.866555,527.992568 428.024543,528.166734 427.996835,528.36585 C427.951626,528.612945 427.904958,528.873955 427.795096,529.079308 C427.41398,529.696806 426.996405,530.290794 426.542371,530.855515 C426.066948,531.401044 425.569164,531.926422 425.075269,532.457557 C424.494844,533.099525 423.935809,533.77124 423.311148,534.379143 C423.094826,534.591693 422.833295,534.754344 422.502249,535" id="Fill-148" fill="#1D4A41"></path>
            <path d="M429.279629,523 C429.015947,522.420431 428.955131,521.94791 429.029264,521.622993 C429.107392,521.176409 429.201057,520.727467 429.404812,520.39359 C429.810102,519.711689 430.273987,519.086377 430.804459,518.535574 C431.567984,517.750869 432.342607,516.975123 433.225987,516.32246 C433.726717,515.94284 434.248311,515.586799 434.795208,515.26141 C434.967001,515.177469 435.121038,515.100602 435.326124,515.101073 C435.458409,515.074665 435.6231,515.041183 435.804215,515.004872 C435.979115,514.970446 436.05236,515.122766 435.959583,515.326016 C435.821527,515.565106 435.771365,515.918789 435.600016,516.130056 C435.099286,516.838837 434.523091,517.464149 433.98019,518.126244 C433.424859,518.774664 432.818922,519.367437 432.251161,520.001709 C431.572423,520.75812 430.945179,521.571591 430.262002,522.323286 C430.144366,522.455328 430.016964,522.576995 429.875356,522.706207 C429.804331,522.770342 429.730198,522.837777 429.651626,522.908514 C429.557517,522.962274 429.412358,522.968404 429.279629,523" id="Fill-149" fill="#1D4A41"></path>
            <path d="M409.054368,534.775927 C409.032156,534.572166 409.053335,534.410061 409.004262,534.114959 C408.987216,533.875063 409.023891,533.711452 409.068316,533.562396 C409.187125,533.172942 409.311616,532.790012 409.528055,532.548611 C409.964032,532.059786 410.417572,531.609103 410.917603,531.227679 C411.64647,530.699708 412.407364,530.213894 413.166191,529.714529 C413.607334,529.437997 414.14559,529.268865 414.653886,529.05306 C414.990684,528.967239 415.36364,529.002872 415.700954,529.039509 C415.906546,529.067112 416.062547,529.287435 415.975248,529.451548 C415.841976,529.63975 415.792386,529.932343 415.65963,530.133594 C414.76598,531.340601 413.488009,532.134063 412.322648,533.043458 C411.597913,533.550351 410.919669,534.132023 410.179438,534.631387 C410.050297,534.718211 409.913409,534.791987 409.76154,534.868272 C409.571962,534.878309 409.553366,535.212557 409.054368,534.775927" id="Fill-150" fill="#1D4A41"></path>
            <path d="M504,369 C505.478029,367.538323 507.790465,366.640135 510.053251,365.582849 C513.027698,364.218832 515.989272,362.626026 518.860279,360.8567 C524.648726,357.294207 529.776543,352.535504 533.030964,346.627818 C535.336505,342.390422 536.663743,337.640431 537.410343,332.797825 C538.157862,327.946507 538.321525,322.970479 538.222684,318.033423 C538.098097,312.372864 537.595154,306.712305 536.63386,301.136568 C536.071152,297.852838 535.731872,295.177071 535.406844,292.825001 C535.287774,292.134051 535.240422,291.897927 535.363169,292.039143 C535.468447,292.184944 535.835771,292.682868 536.221483,293.553088 C536.963486,295.853349 537.580902,298.298035 538.064537,300.721631 C539.55268,308.362881 540.168257,316.16873 539.960919,323.949362 C539.743007,331.674058 538.917334,339.706861 535.271224,346.867151 C533.115095,351.108673 530.049162,354.87703 526.437532,357.948935 C524.635394,359.493141 522.70913,360.888794 520.684483,362.112055 C518.674089,363.361449 516.571288,364.453122 514.411942,365.404037 C511.411291,366.747422 508.282835,367.763443 504,369" id="Fill-151" fill="#DB9E7B"></path>
        </g>
        <text id="ForGreen" font-family="Baloo2-Bold, Baloo 2" font-size="200" font-weight="bold" letter-spacing="2.4166666" fill="#7BB276">
            <tspan x="311.833334" y="1213">ForGreen</tspan>
        </text>
    </g>
</svg>